<svg width="40" height="20" fill="none" xmlns="http://www.w3.org/2000/svg"><rect x=".5" y=".5" width="38.721" height="19" rx="9.5" fill="#fff" stroke="#BC9CFF"/><path d="m9.93 13.887-.605-.547a80.869 80.869 0 0 1-1.504-1.387c-.313-.3-.664-.67-1.055-1.113-.377-.443-.638-.84-.781-1.192a3.021 3.021 0 0 1-.215-1.113c0-.638.215-1.178.645-1.62.442-.444.99-.665 1.64-.665.755 0 1.38.293 1.875.879.495-.586 1.12-.879 1.875-.879.651 0 1.192.221 1.621.664.443.443.664.983.664 1.621 0 .508-.169 1.035-.507 1.582a7.837 7.837 0 0 1-1.114 1.426c-.39.404-1.035 1.01-1.933 1.816l-.606.528Z" fill="url(#a)"/><defs><linearGradient id="a" x1="9.93" y1="0" x2="9.93" y2="20" gradientUnits="userSpaceOnUse"><stop stop-color="#BC9CFF"/><stop offset="1" stop-color="#8BA4F9"/></linearGradient></defs></svg>