<svg width="40" height="20" fill="none" xmlns="http://www.w3.org/2000/svg"><rect width="40" height="20" rx="10" fill="#fff"/><rect x=".5" y=".5" width="39" height="19" rx="9.5" stroke="#1F2041" stroke-opacity=".25"/><path d="M10.04 12.734c.624-.56 1.086-.983 1.386-1.27.3-.286.625-.624.976-1.015.352-.39.593-.735.723-1.035.143-.3.215-.592.215-.879a1.37 1.37 0 0 0-.43-1.035c-.273-.273-.618-.41-1.035-.41a1.68 1.68 0 0 0-.918.273 1.415 1.415 0 0 0-.566.703h-.782c-.104-.286-.3-.52-.586-.703a1.586 1.586 0 0 0-.898-.273 1.47 1.47 0 0 0-1.055.41c-.273.273-.41.618-.41 1.035 0 .287.065.58.195.88.144.299.391.644.743 1.034.351.39.677.73.976 1.016.3.286.762.71 1.387 1.27l.039.038.04-.039Zm1.835-6.484c.651 0 1.191.221 1.621.664.443.443.664.983.664 1.621 0 .378-.072.749-.215 1.113-.143.352-.41.75-.8 1.192-.378.443-.723.814-1.036 1.113-.312.3-.813.762-1.504 1.387l-.605.547-.605-.528a55.519 55.519 0 0 1-1.954-1.816 8.392 8.392 0 0 1-1.093-1.426c-.339-.547-.508-1.074-.508-1.582 0-.638.215-1.178.644-1.62.443-.444.99-.665 1.641-.665.755 0 1.38.293 1.875.879.495-.586 1.12-.879 1.875-.879Z" fill="#1F2041" fill-opacity=".25"/></svg>