<svg width="120" height="24" fill="none" xmlns="http://www.w3.org/2000/svg"><path d="m12 15.422 3.75 2.25-.984-4.266 3.328-2.906-4.407-.375L12 6.094l-1.688 4.031-4.406.375 3.328 2.906-.984 4.266 3.75-2.25Zm9.984-6.188-5.437 4.735L18.187 21 12 17.25 5.812 21l1.641-7.031-5.437-4.735 7.171-.609L12 2.015l2.813 6.61 7.171.61Z" fill="url(#a)"/><path d="m36 15.422 3.75 2.25-.984-4.266 3.328-2.906-4.407-.375L36 6.094l-1.688 4.031-4.406.375 3.328 2.906-.984 4.266 3.75-2.25Zm9.984-6.188-5.437 4.735L42.187 21 36 17.25 29.812 21l1.641-7.031-5.437-4.735 7.172-.609L36 2.015l2.813 6.61 7.171.61Z" fill="url(#b)"/><path d="m60 15.422 3.75 2.25-.984-4.266 3.328-2.906-4.406-.375L60 6.094l-1.688 4.031-4.406.375 3.328 2.906-.984 4.266 3.75-2.25Zm9.984-6.188-5.437 4.735L66.187 21 60 17.25 53.812 21l1.641-7.031-5.437-4.735 7.172-.609L60 2.015l2.813 6.61 7.171.61Z" fill="url(#c)"/><path d="m84 15.422 3.75 2.25-.984-4.266 3.328-2.906-4.406-.375L84 6.094l-1.688 4.031-4.406.375 3.328 2.906-.984 4.266 3.75-2.25Zm9.984-6.188-5.437 4.735L90.187 21 84 17.25 77.812 21l1.641-7.031-5.437-4.735 7.171-.609L84 2.015l2.813 6.61 7.171.61Z" fill="url(#d)"/><path d="m108 15.422 3.75 2.25-.984-4.266 3.328-2.906-4.406-.375L108 6.094l-1.688 4.031-4.406.375 3.328 2.906-.984 4.266 3.75-2.25Zm9.984-6.188-5.437 4.735L114.188 21 108 17.25 101.812 21l1.641-7.031-5.437-4.735 7.172-.609L108 2.015l2.812 6.61 7.172.61Z" fill="url(#e)"/><defs><linearGradient id="a" x1="12" y1="0" x2="12" y2="24" gradientUnits="userSpaceOnUse"><stop stop-color="#BC9CFF"/><stop offset="1" stop-color="#8BA4F9"/></linearGradient><linearGradient id="b" x1="36" y1="0" x2="36" y2="24" gradientUnits="userSpaceOnUse"><stop stop-color="#BC9CFF"/><stop offset="1" stop-color="#8BA4F9"/></linearGradient><linearGradient id="c" x1="60" y1="0" x2="60" y2="24" gradientUnits="userSpaceOnUse"><stop stop-color="#BC9CFF"/><stop offset="1" stop-color="#8BA4F9"/></linearGradient><linearGradient id="d" x1="84" y1="0" x2="84" y2="24" gradientUnits="userSpaceOnUse"><stop stop-color="#BC9CFF"/><stop offset="1" stop-color="#8BA4F9"/></linearGradient><linearGradient id="e" x1="108" y1="0" x2="108" y2="24" gradientUnits="userSpaceOnUse"><stop stop-color="#BC9CFF"/><stop offset="1" stop-color="#8BA4F9"/></linearGradient></defs></svg>