<svg width="40" height="40" fill="none" xmlns="http://www.w3.org/2000/svg"><path d="M26.188 29.094c-1.813 1.25-3.875 1.875-6.188 1.875-2.313 0-4.406-.625-6.281-1.875-1.813-1.313-3.125-3-3.938-5.063H30.22c-.813 2.063-2.157 3.75-4.032 5.063ZM15.03 17.187c-.562.563-1.25.844-2.062.844-.813 0-1.531-.281-2.156-.843-.563-.625-.844-1.344-.844-2.157 0-.812.281-1.5.844-2.062.624-.625 1.343-.938 2.156-.938.812 0 1.5.313 2.062.938.625.562.938 1.25.938 2.062 0 .813-.313 1.531-.938 2.156Zm14.063 0c-.563.563-1.25.844-2.063.844-.812 0-1.531-.281-2.156-.843-.563-.625-.844-1.344-.844-2.157 0-.812.282-1.5.844-2.062.625-.625 1.344-.938 2.156-.938.813 0 1.5.313 2.063.938.625.562.937 1.25.937 2.062 0 .813-.312 1.531-.937 2.156ZM8.656 31.345C11.844 34.469 15.625 36.03 20 36.03c4.375 0 8.125-1.562 11.25-4.687 3.188-3.188 4.781-6.969 4.781-11.344 0-4.375-1.593-8.125-4.781-11.25C28.125 5.562 24.375 3.969 20 3.969S11.844 5.563 8.656 8.75C5.531 11.875 3.97 15.625 3.97 20s1.562 8.156 4.687 11.344ZM5.844 5.937C9.78 2 14.5.032 20 .032S30.188 2 34.063 5.938C38 9.813 39.968 14.5 39.968 20S38 30.219 34.062 34.156C30.189 38.031 25.5 39.97 20 39.97S9.781 38.03 5.844 34.156C1.969 30.22.03 25.5.03 20S1.97 9.812 5.844 5.937Z" fill="url(#a)"/><defs><linearGradient id="a" x1="20" y1="-4" x2="20" y2="44" gradientUnits="userSpaceOnUse"><stop stop-color="#BC9CFF"/><stop offset="1" stop-color="#8BA4F9"/></linearGradient></defs></svg>