<svg width="34" height="43" fill="none" xmlns="http://www.w3.org/2000/svg"><path d="M16.438 36.969c2.687 0 4.937-.907 6.75-2.719C25.063 32.375 26 30.094 26 27.406c0-2.75-.375-5.437-1.125-8.062-1.938 2.562-5.031 4.281-9.281 5.156-3.75.813-5.625 2.875-5.625 6.188 0 1.75.625 3.25 1.875 4.5 1.25 1.187 2.781 1.78 4.594 1.78ZM20 .312c4 3.25 7.156 7.22 9.469 11.907 2.375 4.625 3.562 9.562 3.562 14.812 0 4.375-1.562 8.125-4.687 11.25S21.437 42.97 17 42.97c-4.438 0-8.219-1.563-11.344-4.688S.97 31.406.97 27.031c0-6.75 2.156-12.687 6.468-17.812v.75c0 2.062.688 3.812 2.063 5.25 1.375 1.437 3.094 2.156 5.156 2.156 2 0 3.625-.688 4.875-2.063 1.313-1.437 1.969-3.218 1.969-5.343 0-1.25-.125-2.688-.375-4.313-.25-1.625-.5-2.906-.75-3.843L20 .313Z" fill="url(#a)"/><defs><linearGradient id="a" x1="17" y1="-1" x2="17" y2="47" gradientUnits="userSpaceOnUse"><stop stop-color="#BC9CFF"/><stop offset="1" stop-color="#8BA4F9"/></linearGradient></defs></svg>