<?xml version="1.0" standalone="no"?>
<!DOCTYPE svg PUBLIC "-//W3C//DTD SVG 20010904//EN"
 "http://www.w3.org/TR/2001/REC-SVG-20010904/DTD/svg10.dtd">
<svg version="1.0" xmlns="http://www.w3.org/2000/svg"
 width="70.000000pt" height="70.000000pt" viewBox="0 0 70.000000 70.000000"
 preserveAspectRatio="xMidYMid meet">
<metadata>
Created by potrace 1.14, written by Peter Selinger 2001-2017
</metadata>
<g transform="translate(0.000000,70.000000) scale(0.100000,-0.100000)"
fill="#000000" stroke="none">
<path d="M253 685 c-82 -25 -135 -65 -202 -151 -28 -35 -50 -126 -46 -190 4
-87 8 -103 41 -165 35 -63 91 -114 163 -148 47 -22 70 -26 141 -26 71 0 94 4
141 26 160 75 240 245 195 412 -50 184 -255 298 -433 242z m231 -59 c109 -53
170 -152 170 -276 0 -88 -21 -145 -79 -208 -87 -97 -240 -126 -357 -69 -208
102 -236 383 -53 523 88 67 218 79 319 30z"/>
<path d="M166 422 c-9 -15 9 -29 48 -36 54 -10 103 -61 112 -115 5 -31 11 -41
25 -41 39 0 9 111 -42 156 -39 35 -130 57 -143 36z"/>
<path d="M430 412 c-42 -23 -59 -47 -43 -63 8 -8 18 -6 40 9 15 12 47 26 70
32 31 8 41 15 37 25 -8 21 -62 19 -104 -3z"/>
</g>
</svg>
