<svg version="1.0" xmlns="http://www.w3.org/2000/svg" width="93.333" height="93.333" viewBox="0 0 70 70"><path d="M25.3 1.5C17.1 4 11.8 8 5.1 16.6c-2.8 3.5-5 12.6-4.6 19 .4 8.7.8 10.3 4.1 16.5 3.5 6.3 9.1 11.4 16.3 14.8 4.7 2.2 7 2.6 14.1 2.6s9.4-.4 14.1-2.6c16-7.5 24-24.5 19.5-41.2-5-18.4-25.5-29.8-43.3-24.2zm23.1 5.9c10.9 5.3 17 15.2 17 27.6 0 8.8-2.1 14.5-7.9 20.8-8.7 9.7-24 12.6-35.7 6.9C1 52.5-1.8 24.4 16.5 10.4c8.8-6.7 21.8-7.9 31.9-3z"/><path d="M16.6 27.8c-.9 1.5.9 2.9 4.8 3.6 5.4 1 10.3 6.1 11.2 11.5.5 3.1 1.1 4.1 2.5 4.1 3.9 0 .9-11.1-4.2-15.6-3.9-3.5-13-5.7-14.3-3.6zM43 28.8c-4.2 2.3-5.9 4.7-4.3 6.3.8.8 1.8.6 4-.9 1.5-1.2 4.7-2.6 7-3.2 3.1-.8 4.1-1.5 3.7-2.5-.8-2.1-6.2-1.9-10.4.3z"/></svg>