<svg width="36" height="38" viewBox="0 0 36 38" fill="none" xmlns="http://www.w3.org/2000/svg">
<path d="M31.9688 26V21.9688H28.0312V26H31.9688ZM31.9688 33.9688V30.0312H28.0312V33.9688H31.9688ZM19.9688 9.96875V6.03125H16.0312V9.96875H19.9688ZM19.9688 18.0312V14H16.0312V18.0312H19.9688ZM19.9688 26V21.9688H16.0312V26H19.9688ZM19.9688 33.9688V30.0312H16.0312V33.9688H19.9688ZM7.96875 18.0312V14H4.03125V18.0312H7.96875ZM7.96875 26V21.9688H4.03125V26H7.96875ZM7.96875 33.9688V30.0312H4.03125V33.9688H7.96875ZM24 18.0312H36V38H0V9.96875H12V6.03125L18 0.03125L24 6.03125V18.0312Z" fill="url(#paint0_linear)"/>
<defs>
<linearGradient id="paint0_linear" x1="18" y1="-4" x2="18" y2="44" gradientUnits="userSpaceOnUse">
<stop stop-color="#BC9CFF"/>
<stop offset="1" stop-color="#8BA4F9"/>
</linearGradient>
</defs>
</svg>
